<?xml version="1.0" encoding="UTF-8"?>
<svg width="512" height="512" viewBox="0 0 512 512" version="1.1" xmlns="http://www.w3.org/2000/svg">
    <rect width="512" height="512" rx="64" fill="white"/>
    <path d="M448 64H64C28.65 64 0 92.65 0 128v256c0 35.35 28.65 64 64 64h384c35.35 0 64-28.65 64-64V128c0-35.35-28.65-64-64-64zM64 112h384c8.822 0 16 7.178 16 16v22.16l-208 157.009L48 150.16V128c0-8.822 7.178-16 16-16zm384 288H64c-8.822 0-16-7.178-16-16V189.84l198.938 149.93c8.222 6.187 19.902 6.187 28.124 0L474 189.84V384c0 8.822-7.178 16-16 16z" fill="black"/>
</svg> 