<?xml version="1.0" standalone="no"?>
<!DOCTYPE svg PUBLIC "-//W3C//DTD SVG 20010904//EN" "http://www.w3.org/TR/2001/REC-SVG-20010904/DTD/svg10.dtd">
<svg version="1.0" xmlns="http://www.w3.org/2000/svg"
 width="700.000000pt" height="700.000000pt" viewBox="0 0 700.000000 700.000000"
 preserveAspectRatio="xMidYMid meet">
<metadata>
Created by potrace 1.14, written by Peter Selinger 2001-2017
</metadata>
<g transform="translate(0.000000,700.000000) scale(0.100000,-0.100000)"
fill="#000000" stroke="none">
<path d="M3298 6995 c-2 -1 -41 -5 -88 -9 -87 -7 -105 -9 -225 -27 -116 -18
-123 -19 -192 -35 -184 -42 -248 -59 -369 -99 -264 -87 -538 -225 -759 -382
-346 -244 -655 -578 -873 -947 -127 -216 -228 -447 -289 -665 -26 -93 -27 -95
-50 -195 -70 -304 -74 -682 -11 -1005 130 -661 504 -1268 1042 -1690 147 -115
295 -208 488 -305 140 -71 358 -154 525 -201 228 -64 460 -105 713 -126 130
-11 459 -4 592 12 663 81 1249 339 1723 761 304 270 561 612 722 958 174 372
259 772 259 1230 0 426 -75 804 -237 1196 -182 440 -469 829 -837 1135 -400
332 -893 560 -1375 637 -127 20 -183 26 -370 39 -44 3 -96 7 -115 9 -19 1 -37
1 -39 0z"/>
</g>
</svg> 