<?xml version="1.0" standalone="no"?>
<!DOCTYPE svg PUBLIC "-//W3C//DTD SVG 20010904//EN" "http://www.w3.org/TR/2001/REC-SVG-20010904/DTD/svg10.dtd">
<svg version="1.0" xmlns="http://www.w3.org/2000/svg" width="512" height="512" viewBox="0 0 512 512" preserveAspectRatio="xMidYMid meet">
<g transform="translate(0.000000,512.000000) scale(0.100000,-0.100000)" fill="#000000" stroke="none">
<path d="M280 4480 c-96 -31 -179 -98 -228 -186 l-32 -59 0 -1675 0 -1675 32
-59 c33 -62 89 -118 151 -151 l52 -28 2305 0 2305 0 52 28 c62 33 118 89 151
151 l32 59 0 1675 0 1675 -32 59 c-49 88 -132 155 -228 186 -58 19 -116 20
-2280 20 -2164 0 -2222 -1 -2280 -20z m4397 -261 c17 -9 37 -29 46 -46 15 -29
17 -127 17 -1613 l0 -1580 -1180 890 c-649 489 -1191 893 -1205 897 -14 4 -41
1 -60 -7 -19 -8 -562 -412 -1205 -897 l-1170 -883 0 1580 c0 1486 2 1584 17
1613 9 17 29 37 46 46 29 15 127 17 2347 17 2220 0 2318 -2 2347 -17z m-2397
-2006 c649 -489 1182 -893 1185 -897 3 -4 5 -24 5 -44 0 -31 -6 -41 -46 -71
-44 -33 -47 -33 -202 -39 -2247 -82 -2224 -82 -2269 -49 -40 30 -46 40 -46 71
0 20 2 40 5 44 3 4 536 408 1185 897 649 489 1183 890 1187 890 3 0 537 -401
1186 -890z"/>
</g>
</svg> 